<?xml version="1.0" encoding="UTF-8" standalone="no"?>
<!-- Created with Inkscape (http://www.inkscape.org/) -->

<svg
   xmlns:dc="http://purl.org/dc/elements/1.1/"
   xmlns:cc="http://creativecommons.org/ns#"
   xmlns:rdf="http://www.w3.org/1999/02/22-rdf-syntax-ns#"
   xmlns:svg="http://www.w3.org/2000/svg"
   xmlns="http://www.w3.org/2000/svg"
   xmlns:sodipodi="http://sodipodi.sourceforge.net/DTD/sodipodi-0.dtd"
   xmlns:inkscape="http://www.inkscape.org/namespaces/inkscape"
   sodipodi:docname="gears.svg"
   inkscape:version="0.47 r22583"
   version="1.1"
   id="svg2"
   height="1052.3622"
   width="744.09448"
   style="display:inline">
  <sodipodi:namedview
     id="base"
     pagecolor="#ffffff"
     bordercolor="#666666"
     borderopacity="1.0"
     inkscape:pageopacity="0.0"
     inkscape:pageshadow="2"
     inkscape:zoom="0.7"
     inkscape:cx="376.45614"
     inkscape:cy="802.48781"
     inkscape:document-units="px"
     inkscape:current-layer="layer1"
     showgrid="false"
     inkscape:window-width="928"
     inkscape:window-height="713"
     inkscape:window-x="201"
     inkscape:window-y="56"
     inkscape:window-maximized="0" />
  <defs
     id="defs4">
    <inkscape:perspective
       id="perspective10"
       inkscape:persp3d-origin="372.04724 : 350.78739 : 1"
       inkscape:vp_z="744.09448 : 526.18109 : 1"
       inkscape:vp_y="0 : 1000 : 0"
       inkscape:vp_x="0 : 526.18109 : 1"
       sodipodi:type="inkscape:persp3d" />
  </defs>
  <metadata
     id="metadata7">
    <rdf:RDF>
      <cc:Work
         rdf:about="">
        <dc:format>image/svg+xml</dc:format>
        <dc:type
           rdf:resource="http://purl.org/dc/dcmitype/StillImage" />
        <dc:title></dc:title>
      </cc:Work>
    </rdf:RDF>
  </metadata>
  <g
     id="g2904"
     transform="matrix(2.6596961,0,0,2.412286,264.73029,243.79078)"
     inkscape:label="Gear29"
     style="fill:#cccccc">
    <path
       id="path2906"
       d="m 85.739,-5.931 0.797,-0.056 5.638,0.989 6.474,2.661 0,4.674 -6.474,2.661 -5.638,0.989 -0.797,-0.056 -0.73,6.708 0.791,0.117 5.294,2.178 5.75,3.99 -1.004,4.565 -6.895,1.207 -5.719,-0.247 -0.767,-0.225 -2.154,6.394 0.747,0.284 4.702,3.265 4.758,5.133 -1.962,4.243 -6.993,-0.304 -5.533,-1.47 -0.7,-0.385 -3.478,5.781 0.668,0.439 3.89,4.199 3.544,6.036 -2.829,3.721 -6.764,-1.8 -5.087,-2.625 -0.602,-0.526 -4.639,4.898 0.558,0.572 2.896,4.938 2.164,6.656 -3.563,3.026 -6.218,-3.212 -4.404,-3.657 -0.475,-0.643 -5.584,3.786 0.422,0.679 1.768,5.444 0.682,6.966 -4.13,2.19 -5.383,-4.474 -3.515,-4.518 -0.325,-0.73 -6.267,2.497 0.266,0.753 0.556,5.698 -0.832,6.949 -4.504,1.251 -4.295,-5.526 -2.461,-5.169 -0.161,-0.783 -6.658,1.092 0.099,0.793 L 9.98,91.769 7.674,98.377 3.007,98.63 0,92.31 l -1.293,-5.577 0.012,-0.799 -6.737,-0.365 -0.074,0.796 -1.888,5.404 -3.673,5.958 -4.613,-0.756 -1.578,-6.819 -0.064,-5.724 0.184,-0.778 -6.501,-1.805 -0.244,0.761 -3.006,4.872 -4.867,5.029 -4.343,-1.73 -0.075,-6.999 1.168,-5.604 0.347,-0.72 -5.961,-3.16 -0.402,0.691 -3.983,4.111 -5.835,3.866 -3.869,-2.623 1.431,-6.852 2.346,-5.222 0.493,-0.629 -5.142,-4.367 -0.541,0.588 -4.773,3.16 -6.53,2.52 -3.215,-3.393 2.871,-6.384 3.413,-4.595 0.617,-0.509 -4.083,-5.371 -0.655,0.459 -5.341,2.059 -6.919,1.058 -2.41,-4.005 4.176,-5.617 4.322,-3.755 0.711,-0.363 -2.833,-6.124 -0.738,0.307 -5.659,0.863 -6.984,-0.454 -1.493,-4.429 5.286,-4.588 5.027,-2.738 0.774,-0.202 -1.451,-6.589 -0.787,0.141 -5.712,-0.374 -6.723,-1.945 -0.506,-4.647 6.149,-3.344 5.498,-1.593 0.799,-0.032 0,-6.746 -0.799,-0.032 -5.498,-1.593 -6.149,-3.344 0.506,-4.647 6.723,-1.945 5.712,-0.374 0.787,0.141 1.451,-6.589 -0.774,-0.202 -5.027,-2.738 -5.286,-4.588 1.493,-4.429 6.984,-0.454 5.659,0.863 0.738,0.307 2.833,-6.124 -0.711,-0.363 -4.322,-3.755 -4.176,-5.617 2.41,-4.005 6.919,1.058 5.341,2.059 0.655,0.459 4.083,-5.371 -0.617,-0.509 -3.413,-4.595 -2.871,-6.384 3.215,-3.393 6.53,2.52 4.773,3.16 0.541,0.588 5.142,-4.367 -0.493,-0.629 -2.346,-5.222 -1.431,-6.852 3.869,-2.623 5.835,3.866 3.983,4.111 0.402,0.691 5.961,-3.16 -0.347,-0.72 -1.168,-5.604 0.075,-6.999 4.343,-1.73 4.867,5.029 3.006,4.872 0.244,0.761 6.501,-1.805 -0.184,-0.778 0.064,-5.724 1.578,-6.819 4.613,-0.756 3.673,5.958 1.888,5.404 0.074,0.796 6.737,-0.365 -0.012,-0.799 1.293,-5.577 3.007,-6.32 4.667,0.253 2.306,6.608 0.683,5.684 -0.099,0.793 6.658,1.092 0.161,-0.783 2.461,-5.169 4.295,-5.526 4.504,1.251 0.832,6.949 -0.556,5.698 -0.266,0.753 6.267,2.497 0.325,-0.73 3.515,-4.518 5.383,-4.474 4.13,2.19 -0.682,6.966 -1.768,5.444 -0.422,0.679 5.584,3.786 0.475,-0.643 4.404,-3.657 6.218,-3.212 3.563,3.026 -2.164,6.656 -2.896,4.938 -0.558,0.572 4.639,4.898 0.602,-0.526 5.087,-2.625 6.764,-1.8 2.829,3.721 -3.544,6.036 -3.89,4.199 -0.668,0.439 3.478,5.781 0.7,-0.385 5.533,-1.47 6.993,-0.304 1.962,4.243 -4.758,5.133 -4.702,3.265 -0.747,0.284 2.154,6.394 0.767,-0.225 5.719,-0.247 6.895,1.207 1.004,4.565 -5.75,3.99 -5.294,2.178 -0.791,0.117 z"
       style="fill:#cccccc;stroke:#000000" />
  </g>
  <g
     id="layer1"
     inkscape:groupmode="layer"
     inkscape:label="Layer 1"
     style="display:inline">
    <path
       sodipodi:type="arc"
       style="fill:none;stroke:#000000;stroke-width:1px;stroke-linecap:butt;stroke-linejoin:miter;stroke-opacity:1"
       id="path3075"
       sodipodi:cx="321.42856"
       sodipodi:cy="239.50504"
       sodipodi:rx="130"
       sodipodi:ry="141.42857"
       d="m 451.42856,239.50504 a 130,141.42857 0 1 1 -260,0 130,141.42857 0 1 1 260,0 z"
       transform="matrix(1.6354474,0,0,1.371977,-259.53666,-86.233223)" />
  </g>
</svg>
