<?xml version="1.0" encoding="UTF-8" standalone="no"?>
<!-- Created with Inkscape (http://www.inkscape.org/) -->

<svg
   xmlns:dc="http://purl.org/dc/elements/1.1/"
   xmlns:cc="http://creativecommons.org/ns#"
   xmlns:rdf="http://www.w3.org/1999/02/22-rdf-syntax-ns#"
   xmlns:svg="http://www.w3.org/2000/svg"
   xmlns="http://www.w3.org/2000/svg"
   xmlns:sodipodi="http://sodipodi.sourceforge.net/DTD/sodipodi-0.dtd"
   xmlns:inkscape="http://www.inkscape.org/namespaces/inkscape"
   width="16px"
   height="16px"
   id="svg4666"
   version="1.1"
   inkscape:version="0.47 r22583"
   sodipodi:docname="New document 16">
  <defs
     id="defs4668">
    <inkscape:perspective
       sodipodi:type="inkscape:persp3d"
       inkscape:vp_x="0 : 8 : 1"
       inkscape:vp_y="0 : 1000 : 0"
       inkscape:vp_z="16 : 8 : 1"
       inkscape:persp3d-origin="8 : 5.3333333 : 1"
       id="perspective4674" />
    <inkscape:perspective
       id="perspective4657"
       inkscape:persp3d-origin="0.5 : 0.33333333 : 1"
       inkscape:vp_z="1 : 0.5 : 1"
       inkscape:vp_y="0 : 1000 : 0"
       inkscape:vp_x="0 : 0.5 : 1"
       sodipodi:type="inkscape:persp3d" />
  </defs>
  <sodipodi:namedview
     id="base"
     pagecolor="#ffffff"
     bordercolor="#666666"
     borderopacity="1.0"
     inkscape:pageopacity="0.0"
     inkscape:pageshadow="2"
     inkscape:zoom="11.098901"
     inkscape:cx="3.7025446"
     inkscape:cy="11.461025"
     inkscape:current-layer="layer1"
     showgrid="true"
     inkscape:grid-bbox="true"
     inkscape:document-units="px"
     inkscape:window-width="897"
     inkscape:window-height="665"
     inkscape:window-x="12"
     inkscape:window-y="96"
     inkscape:window-maximized="0" />
  <metadata
     id="metadata4671">
    <rdf:RDF>
      <cc:Work
         rdf:about="">
        <dc:format>image/svg+xml</dc:format>
        <dc:type
           rdf:resource="http://purl.org/dc/dcmitype/StillImage" />
        <dc:title></dc:title>
      </cc:Work>
    </rdf:RDF>
  </metadata>
  <g
     id="layer1"
     inkscape:label="Layer 1"
     inkscape:groupmode="layer">
    <path
       sodipodi:type="arc"
       style="fill:#b3b3b3;fill-rule:evenodd;stroke:#000000;stroke-width:1px;stroke-linecap:butt;stroke-linejoin:miter;stroke-opacity:1"
       id="path4619"
       sodipodi:cx="-102.17228"
       sodipodi:cy="-69.954453"
       sodipodi:rx="14.956436"
       sodipodi:ry="8.8297033"
       d="m -87.215843,-69.954453 a 14.956436,8.8297033 0 1 1 -29.912877,0 14.956436,8.8297033 0 1 1 29.912877,0 z"
       transform="matrix(0.19462833,0,0,0.15896751,28.006929,14.055881)" />
    <path
       sodipodi:type="arc"
       style="fill:#999999;fill-rule:evenodd;stroke:#000000;stroke-width:1px;stroke-linecap:butt;stroke-linejoin:miter;stroke-opacity:1"
       id="path4621"
       sodipodi:cx="-101.09109"
       sodipodi:cy="-7.4257426"
       sodipodi:rx="15.316832"
       sodipodi:ry="8.6495047"
       d="m -85.774256,-7.4257426 a 15.316832,8.6495047 0 1 1 -30.633664,0 15.316832,8.6495047 0 1 1 30.633664,0 z"
       transform="matrix(0.19462833,0,0,0.15896751,28.006929,14.055881)" />
    <path
       style="fill:none;stroke:#000000;stroke-width:0.1758965px;stroke-linecap:butt;stroke-linejoin:miter;stroke-opacity:1"
       d="M 5.1752909,2.9353947 C 5.3155835,13.018656 5.3155835,12.93272 5.3155835,12.93272"
       id="path4629" />
    <path
       style="fill:#b3b3b3;stroke:#000000;stroke-width:0.1758965px;stroke-linecap:butt;stroke-linejoin:miter;stroke-opacity:1"
       d="m 11.067328,2.8781023 c 0.210427,9.9400347 0.175354,9.9686807 0.175354,9.9686807"
       id="path4633" />
    <path
       style="opacity:0.3496001;fill:#b3b3b3;fill-opacity:1;stroke:#000000;stroke-width:0.0316962;stroke-opacity:1"
       d="M 5.4177447,11.997537 C 5.4173552,11.814626 5.3940342,10.163224 5.3658566,8.3277548 5.3377935,6.4922857 5.3144266,4.661731 5.3139685,4.2598555 L 5.3131896,3.5291722 5.5699154,3.7315087 C 6.3968032,4.3832258 8.0439698,4.6109295 9.4773184,4.2716686 10.014045,4.1446316 10.42411,3.9505138 10.754292,3.6671705 l 0.197897,-0.1698164 0.02188,0.7179462 c 0.01203,0.394871 0.04479,2.0263361 0.07285,3.625479 0.02806,1.5991416 0.06094,3.2417327 0.07319,3.6501987 l 0.02211,0.742668 -0.210382,-0.155502 C 10.058259,11.432452 8.2033567,11.223329 6.7686565,11.608785 6.3133814,11.731101 5.9593281,11.898477 5.6736343,12.126443 l -0.2552367,0.203661 -7.789e-4,-0.332567 z"
       id="path4647" />
  </g>
</svg>
