<?xml version="1.0" encoding="UTF-8" standalone="no"?>
<!-- Created with Inkscape (http://www.inkscape.org/) -->

<svg
   xmlns:dc="http://purl.org/dc/elements/1.1/"
   xmlns:cc="http://creativecommons.org/ns#"
   xmlns:rdf="http://www.w3.org/1999/02/22-rdf-syntax-ns#"
   xmlns:svg="http://www.w3.org/2000/svg"
   xmlns="http://www.w3.org/2000/svg"
   xmlns:sodipodi="http://sodipodi.sourceforge.net/DTD/sodipodi-0.dtd"
   xmlns:inkscape="http://www.inkscape.org/namespaces/inkscape"
   style="display:inline"
   width="160"
   height="160"
   id="svg2"
   version="1.1"
   inkscape:version="0.47 r22583"
   sodipodi:docname="gears.svg"
   enable-background="new">
  <sodipodi:namedview
     id="base"
     pagecolor="#ffffff"
     bordercolor="#666666"
     borderopacity="1.0"
     inkscape:pageopacity="0"
     inkscape:pageshadow="2"
     inkscape:zoom="1.8101934"
     inkscape:cx="76.007098"
     inkscape:cy="109.82767"
     inkscape:document-units="px"
     inkscape:current-layer="layer1"
     showgrid="false"
     inkscape:window-width="928"
     inkscape:window-height="713"
     inkscape:window-x="438"
     inkscape:window-y="55"
     inkscape:window-maximized="0"
     borderlayer="false"
     showborder="true"
     inkscape:showpageshadow="false"
     inkscape:snap-from-guide="true"
     showguides="true" />
  <defs
     id="defs4">
    <inkscape:perspective
       sodipodi:type="inkscape:persp3d"
       inkscape:vp_x="0 : 526.18109 : 1"
       inkscape:vp_y="0 : 1000 : 0"
       inkscape:vp_z="744.09448 : 526.18109 : 1"
       inkscape:persp3d-origin="372.04724 : 350.78739 : 1"
       id="perspective10" />
  </defs>
  <metadata
     id="metadata7">
    <rdf:RDF>
      <cc:Work
         rdf:about="">
        <dc:format>image/svg+xml</dc:format>
        <dc:type
           rdf:resource="http://purl.org/dc/dcmitype/StillImage" />
        <dc:title />
      </cc:Work>
    </rdf:RDF>
  </metadata>
  <g
     id="g2918"
     transform="matrix(2.4711124,0,0,2.4805164,80.426518,79.174756)"
     inkscape:label="Gear8">
    <path
       id="path2920"
       d="m 18.674,-4.005 4.723,-1.013 1.578,0.05 6.809,3.246 0,3.444 -6.809,3.246 -1.578,0.05 -4.723,-1.013 -2.638,6.368 4.056,2.623 1.081,1.151 2.52,7.11 -2.436,2.436 -7.11,-2.52 -1.151,-1.081 -2.623,-4.056 -6.368,2.638 1.013,4.723 -0.05,1.578 -3.246,6.809 -3.444,0 -3.246,-6.809 -0.05,-1.578 1.013,-4.723 -6.368,-2.638 -2.623,4.056 -1.151,1.081 -7.11,2.52 -2.436,-2.436 2.52,-7.11 1.081,-1.151 4.056,-2.623 -2.638,-6.368 -4.723,1.013 -1.578,-0.05 -6.809,-3.246 0,-3.444 6.809,-3.246 1.578,-0.05 4.723,1.013 2.638,-6.368 -4.056,-2.623 -1.081,-1.151 -2.52,-7.11 2.436,-2.436 7.11,2.52 1.151,1.081 2.623,4.056 6.368,-2.638 -1.013,-4.723 0.05,-1.578 3.246,-6.809 3.444,0 3.246,6.809 0.05,1.578 -1.013,4.723 6.368,2.638 2.623,-4.056 1.151,-1.081 7.11,-2.52 2.436,2.436 -2.52,7.11 -1.081,1.151 -4.056,2.623 z"
       style="fill:none;stroke:#000000" />
  </g>
  <path
     sodipodi:type="arc"
     style="fill:#ffffff;fill-rule:evenodd;stroke:#000000;stroke-width:1px;stroke-linecap:butt;stroke-linejoin:miter;stroke-opacity:1"
     id="path2954"
     sodipodi:cx="82.035439"
     sodipodi:cy="79.621849"
     sodipodi:rx="26.240292"
     sodipodi:ry="25.687864"
     d="m 108.27573,79.621849 a 26.240292,25.687864 0 1 1 -52.480583,0 26.240292,25.687864 0 1 1 52.480583,0 z"
     transform="matrix(1.392643,0,0,1.3795816,-33.867925,-31.327843)" />
  <path
     style="fill:#b3b3b3;fill-opacity:1;stroke:#000000;stroke-width:0.55242716999999997;stroke-opacity:1"
     d="m 73.426069,148.55382 c -2.344766,-4.91114 -3.821779,-8.70914 -3.813316,-9.80558 0.0076,-0.98428 0.610333,-4.52214 1.339415,-7.86191 0.729088,-3.33978 1.220074,-6.17785 1.091093,-6.30684 -0.431871,-0.43186 -16.98452,-7.23209 -17.590524,-7.2266 -0.328884,0.003 -2.132395,2.42745 -4.007805,5.38773 -1.875409,2.96028 -3.988443,5.90157 -4.695631,6.5362 -0.707187,0.63464 -4.886542,2.4368 -9.287455,4.0048 l -8.00166,2.85091 -2.37723,-2.37724 -2.37723,-2.37722 2.812231,-7.97754 c 1.546727,-4.38764 3.358417,-8.56806 4.025977,-9.28981 0.667561,-0.72174 3.451077,-2.80781 6.185591,-4.6357 2.734515,-1.82789 5.187828,-3.5187 5.451808,-3.75735 0.416388,-0.37643 -5.827751,-16.600634 -6.860751,-17.826349 -0.210313,-0.249548 -3.708221,0.227705 -7.773129,1.060561 l -7.390743,1.51428 -8.424514,-4.045291 -8.4245146,-4.045297 0,-3.214265 0,-3.214264 8.0934276,-3.882795 c 4.451385,-2.13554 8.681675,-3.882796 9.400644,-3.882796 0.718969,0 4.199408,0.625309 7.734307,1.389581 3.5349,0.764267 6.527731,1.288934 6.650736,1.165931 0.269085,-0.269082 6.569775,-15.351996 7.06532,-16.913321 0.290972,-0.916773 -0.543277,-1.678014 -5.073098,-4.629138 -2.981735,-1.942564 -5.964508,-4.12066 -6.628383,-4.840212 -0.663875,-0.719553 -2.471389,-4.904372 -4.016699,-9.2996 l -2.809653,-7.991323 2.387566,-2.387567 2.387567,-2.387567 7.982045,2.813139 c 4.89726,1.725958 8.539918,3.347166 9.425571,4.194962 0.793939,0.760004 2.906973,3.720208 4.695631,6.578232 1.788658,2.858024 3.458179,5.205755 3.710048,5.21718 0.251868,0.01142 4.421856,-1.628731 9.266648,-3.644791 6.908682,-2.874909 8.75354,-3.857958 8.552976,-4.557524 -0.812444,-2.833788 -2.533393,-11.903171 -2.533393,-13.35096 0,-0.9525 1.646891,-5.217728 3.728884,-9.6573008 l 3.728883,-7.9513572 3.32817,-0.019812 3.328174,-0.019812 3.720575,7.8720873 c 4.263468,9.0207597 4.309982,9.3762287 2.378531,18.1771817 l -1.291669,5.885676 8.777035,3.643692 c 4.827365,2.004032 8.960365,3.643693 9.184435,3.643693 0.22406,0 1.95414,-2.436391 3.84461,-5.414202 1.89047,-2.977811 4.00315,-5.936074 4.69485,-6.573919 0.69169,-0.637844 4.93682,-2.465803 9.43361,-4.06213 l 8.176,-2.902413 2.18201,2.130679 c 1.20011,1.171873 2.1772,2.390968 2.17131,2.709099 -0.006,0.318131 -1.25307,4.049507 -2.7715,8.291946 -1.78229,4.979642 -3.29268,8.268699 -4.26149,9.27992 -0.82538,0.861515 -3.80428,3.058661 -6.61977,4.882545 -2.81548,1.823884 -5.11906,3.388248 -5.11906,3.476365 0,0.275064 7.207,17.67033 7.40157,17.864906 0.10139,0.101387 3.09636,-0.445256 6.65548,-1.21476 3.55914,-0.769509 7.03861,-1.399105 7.73218,-1.399105 0.69356,0 4.91166,1.737914 9.37356,3.862024 l 8.11252,3.86203 -0.16459,3.350631 -0.1646,3.350631 -8.28343,3.935502 -8.28344,3.935502 -7.36851,-1.52687 c -4.05269,-0.839777 -7.47078,-1.424616 -7.59575,-1.29964 -0.22421,0.224208 -7.41499,17.523425 -7.41499,17.838605 0,0.0894 2.60428,1.82277 5.78728,3.85191 3.47981,2.21835 6.21023,4.38464 6.84807,5.43319 0.58344,0.95913 2.23489,5.06693 3.66989,9.12845 l 2.6091,7.3846 -2.41372,2.39829 -2.41372,2.3983 -8.1077,-2.89329 c -4.45923,-1.59131 -8.561,-3.30405 -9.11505,-3.80609 -0.55404,-0.50205 -2.6232,-3.41525 -4.59813,-6.47378 -1.97492,-3.05853 -3.84691,-5.56165 -4.15997,-5.56247 -0.31306,-10e-4 -2.67469,0.88686 -5.24806,1.97264 -2.573372,1.08579 -6.447439,2.71079 -8.609037,3.61114 l -3.930176,1.63699 1.292337,5.91823 c 1.912939,8.76026 1.864712,9.1241 -2.408925,18.17409 l -3.728884,7.89641 -3.216319,0.006 -3.216314,0.006 -3.827133,-8.01598 0,0 z m 16.336465,-34.84804 c 1.82301,-0.43085 5.427597,-1.81135 8.010194,-3.06777 3.802212,-1.84976 5.602432,-3.19704 9.461582,-7.08097 7.29277,-7.339597 10.40031,-14.794143 10.41763,-24.990386 0.0109,-6.448488 -0.73941,-9.724845 -3.58037,-15.633258 -3.99915,-8.317108 -10.90568,-14.69437 -19.613405,-18.110384 -18.148017,-7.119408 -39.285641,0.686672 -47.544155,17.557957 -2.851547,5.825416 -3.833323,9.933475 -3.823407,15.998346 0.01695,10.364534 3.105718,17.793326 10.473692,25.190235 9.766555,9.80491 22.506127,13.37224 36.198239,10.13623 l 0,0 z"
     id="path2958" />
  <g
     inkscape:groupmode="layer"
     id="layer1"
     inkscape:label="Layer"
     style="opacity:1" />
</svg>
